#N canvas 513 245 450 300 10;
#X obj 71 32 r mousewheel;
#X obj 77 121 +;
#X obj 105 122 int;
#X obj 134 123 t f f;
#X obj 133 149 outlet;
#X obj 72 61 sel -120 120;
#X msg 45 96 -1;
#X msg 87 93 1;
#X connect 0 0 5 0;
#X connect 1 0 2 0;
#X connect 2 0 3 0;
#X connect 3 0 4 0;
#X connect 3 1 1 1;
#X connect 5 0 6 0;
#X connect 5 1 7 0;
#X connect 5 2 1 0;
#X connect 6 0 1 0;
#X connect 7 0 1 0;
