#N canvas 513 245 450 300 10;
#X obj 77 96 r mousewheel;
#X obj 77 121 +;
#X obj 105 122 int;
#X obj 134 123 t f f;
#X obj 134 170 outlet;
#X obj 131 147 / 120;
#X connect 0 0 1 0;
#X connect 1 0 2 0;
#X connect 2 0 3 0;
#X connect 3 0 5 0;
#X connect 3 1 1 1;
#X connect 5 0 4 0;
